<?xml version="1.0" encoding="UTF-8" standalone="no"?>
<!DOCTYPE svg PUBLIC "-//W3C//DTD SVG 1.1//EN" "http://www.w3.org/Graphics/SVG/1.1/DTD/svg11.dtd">
<svg width="100%" height="100%" viewBox="0 0 52 29" version="1.1" xmlns="http://www.w3.org/2000/svg" xmlns:xlink="http://www.w3.org/1999/xlink" xml:space="preserve" xmlns:serif="http://www.serif.com/" style="fill-rule:evenodd;clip-rule:evenodd;stroke-linejoin:round;stroke-miterlimit:2;">
    <g>
        <path d="M51.4,0L8.45,0C8.03,0.027 7.634,0.2 7.33,0.49C5.06,2.68 2.84,4.93 0.59,7.13C0.184,7.503 -0.033,8.04 0,8.59L0,28.85L43.04,28.85C43.431,28.833 43.803,28.677 44.09,28.41C46.411,26.148 48.715,23.868 51,21.57C51.274,21.252 51.43,20.85 51.44,20.43L51.44,0.88C51.47,0.6 51.43,0.33 51.4,0Z" style="fill:rgb(51,55,77);fill-rule:nonzero;"/>
        <g transform="matrix(1.34435,0,0,1.41235,-6.24339,13.0362)">
            <g transform="matrix(12,0,0,12,9.95633,5.18336)">
                <path d="M0.602,-0.7L0.08,-0.7L0.08,-0L0.263,-0L0.263,-0.533L0.558,-0.533L0.558,-0L0.742,-0L0.742,-0.56C0.742,-0.585 0.736,-0.609 0.723,-0.63C0.71,-0.651 0.693,-0.668 0.672,-0.681C0.651,-0.694 0.627,-0.7 0.602,-0.7Z" style="fill:white;fill-rule:nonzero;"/>
            </g>
            <g transform="matrix(12,0,0,12,19.7603,5.18336)">
                <path d="M0.08,-0.7L0.08,-0L0.265,-0L0.265,-0.258L0.64,-0.258L0.64,-0.418L0.265,-0.418L0.265,-0.538L0.655,-0.538L0.655,-0.7L0.08,-0.7Z" style="fill:white;fill-rule:nonzero;"/>
            </g>
            <g transform="matrix(12,0,0,12,28.1483,5.18336)">
                <path d="M0.099,-0.63C0.086,-0.608 0.08,-0.584 0.08,-0.559L0.08,-0L0.263,-0L0.263,-0.192L0.558,-0.192L0.558,-0L0.742,-0L0.742,-0.56C0.742,-0.585 0.736,-0.609 0.723,-0.63C0.71,-0.651 0.693,-0.668 0.672,-0.681C0.651,-0.694 0.627,-0.7 0.602,-0.7L0.22,-0.7C0.195,-0.7 0.171,-0.694 0.15,-0.681C0.129,-0.668 0.112,-0.651 0.099,-0.63ZM0.558,-0.354L0.263,-0.354L0.263,-0.535L0.558,-0.535L0.558,-0.354Z" style="fill:white;fill-rule:nonzero;"/>
            </g>
        </g>
    </g>
</svg>
