<?xml version="1.0" encoding="UTF-8" standalone="no"?>
<!DOCTYPE svg PUBLIC "-//W3C//DTD SVG 1.1//EN" "http://www.w3.org/Graphics/SVG/1.1/DTD/svg11.dtd">
<svg width="100%" height="100%" viewBox="0 0 52 29" version="1.1" xmlns="http://www.w3.org/2000/svg" xmlns:xlink="http://www.w3.org/1999/xlink" xml:space="preserve" xmlns:serif="http://www.serif.com/" style="fill-rule:evenodd;clip-rule:evenodd;stroke-linejoin:round;stroke-miterlimit:2;">
    <g>
        <path d="M51.4,0L8.45,0C8.03,0.027 7.634,0.2 7.33,0.49C5.06,2.68 2.84,4.93 0.59,7.13C0.184,7.503 -0.033,8.04 0,8.59L0,28.85L43.04,28.85C43.431,28.833 43.803,28.677 44.09,28.41C46.411,26.148 48.715,23.868 51,21.57C51.274,21.252 51.43,20.85 51.44,20.43L51.44,0.88C51.47,0.6 51.43,0.33 51.4,0Z" style="fill:rgb(51,55,77);fill-rule:nonzero;"/>
        <g transform="matrix(1.34435,0,0,1.41235,-6.24339,13.0362)">
            <g transform="matrix(12,0,0,12,38.0123,5.18336)">
            </g>
            <text x="9.956px" y="5.183px" style="font-family:'SportyPro-Bold', 'Sporty Pro';font-weight:500;font-size:12px;fill:white;">NFA</text>
        </g>
    </g>
</svg>
